<mxfile host="app.diagrams.net" modified="2023-04-13T01:31:11.095Z" agent="Mozilla/5.0 (Windows NT 10.0; Win64; x64; rv:109.0) Gecko/20100101 Firefox/111.0" version="21.1.7" etag="NMD0BTPYTFJh_u60D8HA" type="github">
  <diagram name="Page-1" id="HLdMp_AG3dCK0njXTU4O">
    <mxGraphModel>
      <root>
        <mxCell id="0" />
        <mxCell id="1" parent="0" />
      </root>
    </mxGraphModel>
  </diagram>
</mxfile>
